# xmcd
#
# Track frame offsets: 
#        150
#        11573
#        27621
#        39869
#        54241
#        66745
#        82621
#        95910
#        110955
#        122503
#        137054
#        150261
#        164031
#        179564
#
# Disc length: 2733 seconds
#
# Revision: 0
# Processed by: cddbd v1.5.2PL0 Copyright (c) Steve Scherf et al.
# Submitted via: ExactAudioCopy v0.99pb5
#
DISCID=bd0aab0e
DTITLE=Johnny Dowd - That's your wife on the back of my horse
DYEAR=2015
DGENRE=Alternative
TTITLE0=That's your wife on the back of my horse
TTITLE1=White Dolemite
TTITLE2=Cadillac Hearse
TTITLE3=The Devil Don't Bother Me
TTITLE4=Empty Purse
TTITLE5=Why?
TTITLE6=Sunglassees
TTITLE7=Nasty Mouth
TTITLE8=Words Are Birds
TTITLE9=My Old Flame
TTITLE10=Dear John Letter
TTITLE11=Female Jesus
TTITLE12=Poor, but Proud
TTITLE13=Teardrops
EXTD=
EXTT0=
EXTT1=
EXTT2=
EXTT3=
EXTT4=
EXTT5=
EXTT6=
EXTT7=
EXTT8=
EXTT9=
EXTT10=
EXTT11=
EXTT12=
EXTT13=
PLAYORDER=
